{
  "accessors": [
    {
      "bufferView": 2,
      "componentType": 5126,
      "count": 1072,
      "max": [
        3.038344383239746,
        3.0969223976135254,
        5.864254951477051
      ],
      "min": [
        -3.038344383239746,
        -3.0560803413391113,
        -5.864254951477051
      ],
      "type": "VEC3"
    },
    {
      "bufferView": 2,
      "byteOffset": 12864,
      "componentType": 5126,
      "count": 1072,
      "max": [
        1.0,
        1.0,
        1.0
      ],
      "min": [
        -1.0,
        -1.0,
        -1.0
      ],
      "type": "VEC3"
    },
    {
      "bufferView": 1,
      "componentType": 5126,
      "count": 1072,
      "max": [
        0.9684621691703796,
        0.9659220576286316
      ],
      "min": [
        0.03855842724442482,
        0.14218291640281677
      ],
      "type": "VEC2"
    },
    {
      "bufferView": 0,
      "componentType": 5125,
      "count": 3456,
      "type": "SCALAR"
    },
    {
      "bufferView": 2,
      "byteOffset": 25728,
      "componentType": 5126,
      "count": 484,
      "max": [
        4.092288017272949,
        8.2457914352417,
        4.066816329956055
      ],
      "min": [
        -3.631068229675293,
        0.2829700708389282,
        -8.846899032592773
      ],
      "type": "VEC3"
    },
    {
      "bufferView": 2,
      "byteOffset": 31536,
      "componentType": 5126,
      "count": 484,
      "max": [
        0.9822086095809937,
        0.9700871706008911,
        0.9900705814361572
      ],
      "min": [
        -0.9876634478569031,
        -0.9983602166175842,
        -0.9982227087020874
      ],
      "type": "VEC3"
    },
    {
      "bufferView": 1,
      "byteOffset": 8576,
      "componentType": 5126,
      "count": 484,
      "max": [
        0.950353741645813,
        0.8906625509262085
      ],
      "min": [
        5.960464477539063e-08,
        0.10933727025985718
      ],
      "type": "VEC2"
    },
    {
      "bufferView": 1,
      "byteOffset": 12448,
      "componentType": 5126,
      "count": 484,
      "max": [
        0.950353741645813,
        0.8906625509262085
      ],
      "min": [
        5.960464477539063e-08,
        0.10933727025985718
      ],
      "type": "VEC2"
    },
    {
      "bufferView": 0,
      "byteOffset": 13824,
      "componentType": 5125,
      "count": 726,
      "type": "SCALAR"
    },
    {
      "bufferView": 2,
      "byteOffset": 37344,
      "componentType": 5126,
      "count": 484,
      "max": [
        3.8084588050842285,
        8.563804626464844,
        3.1441426277160645
      ],
      "min": [
        -4.0401153564453125,
        -0.17734676599502563,
        -7.956907272338867
      ],
      "type": "VEC3"
    },
    {
      "bufferView": 2,
      "byteOffset": 43152,
      "componentType": 5126,
      "count": 484,
      "max": [
        0.9976217746734619,
        0.9700690507888794,
        0.9900705814361572
      ],
      "min": [
        -0.9916350245475769,
        -0.9983585476875305,
        -0.9982227087020874
      ],
      "type": "VEC3"
    },
    {
      "bufferView": 1,
      "byteOffset": 16320,
      "componentType": 5126,
      "count": 484,
      "max": [
        0.950353741645813,
        0.8906625509262085
      ],
      "min": [
        5.960464477539063e-08,
        0.10933727025985718
      ],
      "type": "VEC2"
    },
    {
      "bufferView": 1,
      "byteOffset": 20192,
      "componentType": 5126,
      "count": 484,
      "max": [
        0.950353741645813,
        0.8906625509262085
      ],
      "min": [
        5.960464477539063e-08,
        0.10933727025985718
      ],
      "type": "VEC2"
    },
    {
      "bufferView": 0,
      "byteOffset": 16728,
      "componentType": 5125,
      "count": 726,
      "type": "SCALAR"
    }
  ],
  "asset": {
    "extras": {
      "author": "ThomasWhalley (https://sketchfab.com/ThomasWhalley)",
      "license": "CC-BY-4.0 (http://creativecommons.org/licenses/by/4.0/)",
      "source": "https://sketchfab.com/3d-models/hay-bale-16f3d0337ad54e92b186d8a6e8494699",
      "title": "Hay Bale"
    },
    "generator": "Sketchfab-12.65.0",
    "version": "2.0"
  },
  "bufferViews": [
    {
      "buffer": 0,
      "byteLength": 19632,
      "name": "floatBufferViews",
      "target": 34963
    },
    {
      "buffer": 0,
      "byteLength": 24064,
      "byteOffset": 19632,
      "byteStride": 8,
      "name": "floatBufferViews",
      "target": 34962
    },
    {
      "buffer": 0,
      "byteLength": 48960,
      "byteOffset": 43696,
      "byteStride": 12,
      "name": "floatBufferViews",
      "target": 34962
    }
  ],
  "buffers": [
    {
      "byteLength": 92656,
      "uri": "scene.bin"
    }
  ],
  "images": [
    {
      "uri": "textures/lambert1_baseColor.jpeg"
    },
    {
      "uri": "textures/lambert2_baseColor.png"
    }
  ],
  "materials": [
    {
      "doubleSided": true,
      "name": "lambert1",
      "pbrMetallicRoughness": {
        "baseColorFactor": [
          0.8,
          0.8,
          0.8,
          1.0
        ],
        "baseColorTexture": {
          "index": 0
        },
        "metallicFactor": 0.0,
        "roughnessFactor": 0.6
      }
    },
    {
      "alphaMode": "BLEND",
      "doubleSided": true,
      "name": "lambert2",
      "pbrMetallicRoughness": {
        "baseColorFactor": [
          0.8,
          0.8,
          0.8,
          1.0
        ],
        "baseColorTexture": {
          "index": 1
        },
        "metallicFactor": 0.0,
        "roughnessFactor": 0.6
      }
    }
  ],
  "meshes": [
    {
      "name": "pCube1_lambert1_0",
      "primitives": [
        {
          "attributes": {
            "NORMAL": 1,
            "POSITION": 0,
            "TEXCOORD_0": 2
          },
          "indices": 3,
          "material": 0,
          "mode": 4
        }
      ]
    },
    {
      "name": "pPlane46_lambert2_0",
      "primitives": [
        {
          "attributes": {
            "NORMAL": 5,
            "POSITION": 4,
            "TEXCOORD_0": 6,
            "TEXCOORD_1": 7
          },
          "indices": 8,
          "material": 1,
          "mode": 4
        }
      ]
    },
    {
      "name": "pPlane47_lambert2_0",
      "primitives": [
        {
          "attributes": {
            "NORMAL": 10,
            "POSITION": 9,
            "TEXCOORD_0": 11,
            "TEXCOORD_1": 12
          },
          "indices": 13,
          "material": 1,
          "mode": 4
        }
      ]
    }
  ],
  "nodes": [
    {
      "children": [
        1
      ],
      "matrix": [
        1.0,
        0.0,
        0.0,
        0.0,
        0.0,
        2.220446049250313e-16,
        -1.0,
        0.0,
        0.0,
        1.0,
        2.220446049250313e-16,
        0.0,
        0.0,
        0.0,
        0.0,
        1.0
      ],
      "name": "Sketchfab_model"
    },
    {
      "children": [
        2
      ],
      "matrix": [
        1.0,
        0.0,
        0.0,
        0.0,
        0.0,
        0.0,
        1.0,
        0.0,
        0.0,
        -1.0,
        0.0,
        0.0,
        0.0,
        0.0,
        0.0,
        1.0
      ],
      "name": "62c90515485f4eaf87cd043f5653befb.fbx"
    },
    {
      "children": [
        3,
        5,
        7
      ],
      "name": "RootNode"
    },
    {
      "children": [
        4
      ],
      "matrix": [
        1.0,
        0.0,
        0.0,
        0.0,
        0.0,
        1.0,
        0.0,
        0.0,
        0.0,
        0.0,
        1.0,
        0.0,
        0.10904449224472046,
        3.986809253692627,
        -2.3919200897216797,
        1.0
      ],
      "name": "pCube1"
    },
    {
      "mesh": 0,
      "name": "pCube1_lambert1_0"
    },
    {
      "children": [
        6
      ],
      "name": "pPlane46"
    },
    {
      "mesh": 1,
      "name": "pPlane46_lambert2_0"
    },
    {
      "children": [
        8
      ],
      "matrix": [
        1.0,
        0.0,
        0.0,
        0.0,
        0.0,
        0.8236735463142395,
        0.0,
        0.0,
        0.0,
        0.0,
        1.1989301443099976,
        0.0,
        0.0,
        0.6646223664283752,
        0.4681740403175354,
        1.0
      ],
      "name": "pPlane47"
    },
    {
      "mesh": 2,
      "name": "pPlane47_lambert2_0"
    }
  ],
  "samplers": [
    {
      "magFilter": 9729,
      "minFilter": 9987,
      "wrapS": 10497,
      "wrapT": 10497
    }
  ],
  "scene": 0,
  "scenes": [
    {
      "name": "Sketchfab_Scene",
      "nodes": [
        0
      ]
    }
  ],
  "textures": [
    {
      "sampler": 0,
      "source": 0
    },
    {
      "sampler": 0,
      "source": 1
    }
  ]
}
