{
  "accessors": [
    {
      "bufferView": 2,
      "componentType": 5126,
      "count": 4760,
      "max": [
        -0.04531700164079666,
        6.205182075500488,
        8.335865020751953
      ],
      "min": [
        -11.993537902832031,
        -6.215929985046387,
        3.3578929901123047
      ],
      "type": "VEC3"
    },
    {
      "bufferView": 2,
      "byteOffset": 57120,
      "componentType": 5126,
      "count": 4760,
      "max": [
        1.0,
        0.9793161153793335,
        1.0
      ],
      "min": [
        -1.0,
        -0.9971380233764648,
        -1.0
      ],
      "type": "VEC3"
    },
    {
      "bufferView": 1,
      "componentType": 5126,
      "count": 4760,
      "max": [
        0.5724189877510071,
        0.9998819828033447
      ],
      "min": [
        0.00011800000356743112,
        0.00011800000356743112
      ],
      "type": "VEC2"
    },
    {
      "bufferView": 0,
      "componentType": 5125,
      "count": 7425,
      "type": "SCALAR"
    },
    {
      "bufferView": 2,
      "byteOffset": 114240,
      "componentType": 5126,
      "count": 2389,
      "max": [
        -11.955747604370117,
        6.323816776275635,
        8.396141052246094
      ],
      "min": [
        -12.560563087463379,
        -6.323966026306152,
        -3.8711400032043457
      ],
      "type": "VEC3"
    },
    {
      "bufferView": 2,
      "byteOffset": 142908,
      "componentType": 5126,
      "count": 2389,
      "max": [
        1.0,
        1.0,
        1.0
      ],
      "min": [
        -1.0,
        -1.0,
        -1.0
      ],
      "type": "VEC3"
    },
    {
      "bufferView": 1,
      "byteOffset": 38080,
      "componentType": 5126,
      "count": 2389,
      "max": [
        0.8954669833183289,
        0.9998239874839783
      ],
      "min": [
        0.0,
        0.0
      ],
      "type": "VEC2"
    },
    {
      "bufferView": 0,
      "byteOffset": 29700,
      "componentType": 5125,
      "count": 3879,
      "type": "SCALAR"
    },
    {
      "bufferView": 2,
      "byteOffset": 171576,
      "componentType": 5126,
      "count": 1560,
      "max": [
        0.21639099717140198,
        6.3197021484375,
        3.8466179370880127
      ],
      "min": [
        -12.431394577026367,
        5.714885234832764,
        -3.893537998199463
      ],
      "type": "VEC3"
    },
    {
      "bufferView": 2,
      "byteOffset": 190296,
      "componentType": 5126,
      "count": 1560,
      "max": [
        1.0,
        1.0,
        1.0
      ],
      "min": [
        -1.0,
        -1.0,
        -1.0
      ],
      "type": "VEC3"
    },
    {
      "bufferView": 1,
      "byteOffset": 57192,
      "componentType": 5126,
      "count": 1560,
      "max": [
        0.9560819864273071,
        0.9998130202293396
      ],
      "min": [
        0.00018699999782256782,
        0.00018699999782256782
      ],
      "type": "VEC2"
    },
    {
      "bufferView": 0,
      "byteOffset": 45216,
      "componentType": 5125,
      "count": 3486,
      "type": "SCALAR"
    },
    {
      "bufferView": 2,
      "byteOffset": 209016,
      "componentType": 5126,
      "count": 2922,
      "max": [
        0.2738940119743347,
        -5.4569292068481445,
        3.870076894760132
      ],
      "min": [
        -12.37388801574707,
        -6.225453853607178,
        -3.870076894760132
      ],
      "type": "VEC3"
    },
    {
      "bufferView": 2,
      "byteOffset": 244080,
      "componentType": 5126,
      "count": 2922,
      "max": [
        1.0,
        1.0,
        1.0
      ],
      "min": [
        -1.0,
        -1.0,
        -1.0
      ],
      "type": "VEC3"
    },
    {
      "bufferView": 1,
      "byteOffset": 69672,
      "componentType": 5126,
      "count": 2922,
      "max": [
        0.9934870004653931,
        0.9997280240058899
      ],
      "min": [
        0.00027200000477023423,
        0.00027200000477023423
      ],
      "type": "VEC2"
    },
    {
      "bufferView": 0,
      "byteOffset": 59160,
      "componentType": 5125,
      "count": 5574,
      "type": "SCALAR"
    },
    {
      "bufferView": 2,
      "byteOffset": 279144,
      "componentType": 5126,
      "count": 6588,
      "max": [
        12.071754455566406,
        6.374720096588135,
        8.396141052246094
      ],
      "min": [
        -0.29268699884414673,
        -6.323966026306152,
        -3.8700780868530273
      ],
      "type": "VEC3"
    },
    {
      "bufferView": 2,
      "byteOffset": 358200,
      "componentType": 5126,
      "count": 6588,
      "max": [
        1.0,
        1.0,
        1.0
      ],
      "min": [
        -1.0,
        -1.0,
        -1.0
      ],
      "type": "VEC3"
    },
    {
      "bufferView": 1,
      "byteOffset": 93048,
      "componentType": 5126,
      "count": 6588,
      "max": [
        0.8954669833183289,
        0.9998239874839783
      ],
      "min": [
        0.00017600000137463212,
        0.00017600000137463212
      ],
      "type": "VEC2"
    },
    {
      "bufferView": 0,
      "byteOffset": 81456,
      "componentType": 5125,
      "count": 13944,
      "type": "SCALAR"
    }
  ],
  "asset": {
    "extras": {
      "author": "jakerc10 (https://sketchfab.com/jakerc10)",
      "license": "CC-BY-4.0 (http://creativecommons.org/licenses/by/4.0/)",
      "source": "https://sketchfab.com/3d-models/barn-84f2bb75bf444b30a6fc227f57938b64",
      "title": "Barn"
    },
    "generator": "Sketchfab-14.40.0",
    "version": "2.0"
  },
  "bufferViews": [
    {
      "buffer": 0,
      "byteLength": 137232,
      "name": "floatBufferViews",
      "target": 34963
    },
    {
      "buffer": 0,
      "byteLength": 145752,
      "byteOffset": 137232,
      "byteStride": 8,
      "name": "floatBufferViews",
      "target": 34962
    },
    {
      "buffer": 0,
      "byteLength": 437256,
      "byteOffset": 282984,
      "byteStride": 12,
      "name": "floatBufferViews",
      "target": 34962
    }
  ],
  "buffers": [
    {
      "byteLength": 720240,
      "uri": "scene.bin"
    }
  ],
  "images": [
    {
      "uri": "textures/Back_baseColor.png"
    },
    {
      "uri": "textures/Front_baseColor.png"
    },
    {
      "uri": "textures/Roof_baseColor.png"
    },
    {
      "uri": "textures/Wall_baseColor.png"
    },
    {
      "uri": "textures/Window_baseColor.png"
    }
  ],
  "materials": [
    {
      "doubleSided": true,
      "name": "Back",
      "pbrMetallicRoughness": {
        "baseColorTexture": {
          "index": 0
        },
        "metallicFactor": 0.0,
        "roughnessFactor": 0.6
      }
    },
    {
      "doubleSided": true,
      "name": "Front",
      "pbrMetallicRoughness": {
        "baseColorTexture": {
          "index": 1
        },
        "metallicFactor": 0.0
      }
    },
    {
      "doubleSided": true,
      "name": "Roof",
      "pbrMetallicRoughness": {
        "baseColorTexture": {
          "index": 2
        },
        "metallicFactor": 0.0,
        "roughnessFactor": 0.6
      }
    },
    {
      "doubleSided": true,
      "name": "Wall",
      "pbrMetallicRoughness": {
        "baseColorTexture": {
          "index": 3
        },
        "metallicFactor": 0.0,
        "roughnessFactor": 0.6
      }
    },
    {
      "doubleSided": true,
      "name": "Window",
      "pbrMetallicRoughness": {
        "baseColorTexture": {
          "index": 4
        },
        "metallicFactor": 0.0,
        "roughnessFactor": 0.6
      }
    }
  ],
  "meshes": [
    {
      "name": "Object_0",
      "primitives": [
        {
          "attributes": {
            "NORMAL": 1,
            "POSITION": 0,
            "TEXCOORD_0": 2
          },
          "indices": 3,
          "material": 2,
          "mode": 4
        }
      ]
    },
    {
      "name": "Object_1",
      "primitives": [
        {
          "attributes": {
            "NORMAL": 5,
            "POSITION": 4,
            "TEXCOORD_0": 6
          },
          "indices": 7,
          "material": 1,
          "mode": 4
        }
      ]
    },
    {
      "name": "Object_2",
      "primitives": [
        {
          "attributes": {
            "NORMAL": 9,
            "POSITION": 8,
            "TEXCOORD_0": 10
          },
          "indices": 11,
          "material": 3,
          "mode": 4
        }
      ]
    },
    {
      "name": "Object_3",
      "primitives": [
        {
          "attributes": {
            "NORMAL": 13,
            "POSITION": 12,
            "TEXCOORD_0": 14
          },
          "indices": 15,
          "material": 4,
          "mode": 4
        }
      ]
    },
    {
      "name": "Object_4",
      "primitives": [
        {
          "attributes": {
            "NORMAL": 17,
            "POSITION": 16,
            "TEXCOORD_0": 18
          },
          "indices": 19,
          "material": 0,
          "mode": 4
        }
      ]
    }
  ],
  "nodes": [
    {
      "children": [
        1
      ],
      "matrix": [
        1.0,
        0.0,
        0.0,
        0.0,
        0.0,
        2.220446049250313e-16,
        -1.0,
        0.0,
        0.0,
        1.0,
        2.220446049250313e-16,
        0.0,
        0.0,
        0.0,
        0.0,
        1.0
      ],
      "name": "Sketchfab_model"
    },
    {
      "children": [
        2,
        3,
        4,
        5,
        6
      ],
      "name": "Barn.obj.cleaner.materialmerger.gles"
    },
    {
      "mesh": 0,
      "name": "Object_2"
    },
    {
      "mesh": 1,
      "name": "Object_3"
    },
    {
      "mesh": 2,
      "name": "Object_4"
    },
    {
      "mesh": 3,
      "name": "Object_5"
    },
    {
      "mesh": 4,
      "name": "Object_6"
    }
  ],
  "samplers": [
    {
      "magFilter": 9729,
      "minFilter": 9987,
      "wrapS": 10497,
      "wrapT": 10497
    }
  ],
  "scene": 0,
  "scenes": [
    {
      "name": "Sketchfab_Scene",
      "nodes": [
        0
      ]
    }
  ],
  "textures": [
    {
      "sampler": 0,
      "source": 0
    },
    {
      "sampler": 0,
      "source": 1
    },
    {
      "sampler": 0,
      "source": 2
    },
    {
      "sampler": 0,
      "source": 3
    },
    {
      "sampler": 0,
      "source": 4
    }
  ]
}
